<svg width="4961" height="4961" viewBox="0 0 4961 4961" fill="none" xmlns="http://www.w3.org/2000/svg">
<path d="M4961 2892.34C4961 3020.78 4856.9 3124.89 4728.45 3124.89H232.547C104.103 3124.89 0 3020.78 0 2892.34V2068.74C0 1940.29 104.103 1836.19 232.547 1836.19H4728.45C4856.9 1836.19 4961 1940.29 4961 2068.74V2892.34Z" fill="white"/>
<path d="M2892.34 4961C3020.78 4961 3124.89 4856.9 3124.89 4728.45V232.547C3124.89 104.103 3020.78 0 2892.34 0H2068.74C1940.29 0 1836.19 104.103 1836.19 232.547V4728.45C1836.19 4856.9 1940.29 4961 2068.74 4961H2892.34Z" fill="white"/>
</svg>
