<svg width="312" height="312" viewBox="0 0 312 312" fill="none" xmlns="http://www.w3.org/2000/svg">
<path d="M287.214 132.125H24.7857C11.5972 132.125 0.928551 142.801 0.928551 155.328C0.928551 167.856 11.5972 179.203 24.7857 179.203H156H287.214C300.403 179.203 311.072 168.527 311.072 155.328C311.072 142.13 300.41 132.125 287.214 132.125ZM156 72.4372C175.735 72.4372 191.785 56.3741 191.785 36.625C191.785 16.8759 175.735 0.8125 156 0.8125C136.265 0.8125 120.214 16.8759 120.214 36.625C120.214 56.3741 136.243 72.4372 156 72.4372ZM156 239.563C136.265 239.563 120.214 255.626 120.214 275.375C120.214 295.124 136.265 311.187 156 311.187C175.735 311.187 191.785 295.124 191.785 275.375C191.785 255.626 175.757 239.563 156 239.563Z" fill="white"/>
</svg>
