<svg width="6626" height="6626" viewBox="0 0 6626 6626" fill="none" xmlns="http://www.w3.org/2000/svg">
<path fill-rule="evenodd" clip-rule="evenodd" d="M6440.82 185.65C6687.57 432.383 6687.57 832.431 6440.82 1079.16L1079.27 6440.25C832.504 6686.97 432.423 6686.97 185.666 6440.25C-61.0958 6193.48 -61.0958 5793.47 185.666 5546.76L5547.24 185.65C5793.98 -61.0904 6194.07 -61.0904 6440.82 185.65Z" fill="white"/>
<path fill-rule="evenodd" clip-rule="evenodd" d="M185.666 185.65C432.423 -61.0904 832.504 -61.0904 1079.27 185.65L6440.82 5546.76C6687.57 5793.47 6687.57 6193.48 6440.82 6440.25C6194.07 6686.97 5793.98 6686.97 5547.24 6440.25L185.666 1079.16C-61.0958 832.431 -61.0958 432.383 185.666 185.65Z" fill="white"/>
</svg>
