<svg width="893" height="893" viewBox="0 0 893 893" fill="none" xmlns="http://www.w3.org/2000/svg">
<rect width="893" height="893" fill="black"/>
<path d="M446.5 55.8125C495.652 55.8125 538.926 68.761 574.757 92.7976C610.589 116.797 638.979 151.884 658.439 196.162C677.861 240.44 688.354 293.834 688.354 354.558V538.442C688.354 599.166 677.861 652.597 658.439 696.838C638.979 741.116 610.589 776.203 574.72 800.202C538.926 824.239 495.652 837.187 446.5 837.187C397.348 837.187 354.075 824.239 318.243 800.202C282.411 776.203 254.021 741.116 234.561 696.838C215.139 652.56 204.646 599.166 204.646 538.442V354.558C204.646 293.834 215.139 240.403 234.561 196.162C254.021 151.884 282.411 116.797 318.28 92.7976C354.037 68.761 397.311 55.8125 446.5 55.8125ZM446.5 130.229C412.417 130.229 383.469 138.638 359.693 154.601C335.991 170.489 316.606 194.414 302.69 226.041C287.36 261.016 279.063 304.476 279.063 354.558V538.442C279.063 588.524 287.36 631.984 302.69 666.922C316.606 698.586 335.991 722.511 359.693 738.399C383.469 754.362 412.417 762.771 446.5 762.771C480.583 762.771 509.531 754.362 533.307 738.399C557.009 722.511 576.394 698.586 590.31 666.959C605.64 631.983 613.938 588.524 613.938 538.442V354.558C613.938 304.476 605.64 261.016 590.31 226.078C576.394 194.414 557.009 170.489 533.307 154.601C509.531 138.638 480.583 130.229 446.5 130.229Z" fill="white"/>
</svg>
